<svg width="15" height="15" viewBox="0 0 15 15" fill="none" xmlns="http://www.w3.org/2000/svg">
<g id="google-icon (3)">
<path id="Path" d="M14.0858 7.34647C14.0858 6.75557 14.0378 6.32437 13.9341 5.8772H7.18652V8.54425H11.1472C11.0674 9.20704 10.6362 10.2052 9.67791 10.8759L9.66448 10.9652L11.7979 12.618L11.9457 12.6327C13.3032 11.379 14.0858 9.53442 14.0858 7.34647Z" fill="#4285F4"/>
<path id="Path_2" d="M7.18677 14.3735C9.12717 14.3735 10.7561 13.7347 11.946 12.6327L9.67816 10.8759C9.07129 11.2991 8.25677 11.5946 7.18677 11.5946C5.28629 11.5946 3.67328 10.341 3.09829 8.60815L3.01401 8.61531L0.795613 10.3321L0.766602 10.4128C1.94841 12.7604 4.37594 14.3735 7.18677 14.3735Z" fill="#34A853"/>
<path id="Path_3" d="M3.09825 8.60808C2.94654 8.16091 2.85873 7.68176 2.85873 7.18669C2.85873 6.69158 2.94654 6.21248 3.09027 5.76531L3.08625 5.67007L0.840059 3.92566L0.766567 3.96062C0.279487 4.93483 0 6.02883 0 7.18669C0 8.34455 0.279487 9.4385 0.766567 10.4127L3.09825 8.60808Z" fill="#FBBC05"/>
<path id="Path_4" d="M7.18677 2.77885C8.53626 2.77885 9.44656 3.36178 9.96563 3.84891L11.9939 1.86855C10.7482 0.710692 9.12717 0 7.18677 0C4.37594 0 1.94841 1.61301 0.766602 3.96066L3.0903 5.76536C3.67328 4.03256 5.28629 2.77885 7.18677 2.77885Z" fill="#EB4335"/>
</g>
</svg>
