<svg width="32" height="32" viewBox="0 0 32 32" fill="none" xmlns="http://www.w3.org/2000/svg">
<rect width="32" height="32" fill="white" fill-opacity="0.01"/>
<path fill-rule="evenodd" clip-rule="evenodd" d="M14.6665 2.66675C21.2939 2.66675 26.6665 8.03933 26.6665 14.6667C26.6665 17.5001 25.6845 20.1042 24.0423 22.1571L28.9426 27.0574C29.4633 27.5781 29.4633 28.4223 28.9426 28.943C28.4219 29.4637 27.5777 29.4637 27.057 28.943L22.1567 24.0427C20.1038 25.6848 17.4998 26.6667 14.6665 26.6667C8.03909 26.6667 2.6665 21.2942 2.6665 14.6667C2.6665 8.03933 8.03909 2.66675 14.6665 2.66675ZM21.142 21.3883C19.4637 23.0055 17.1812 24.0001 14.6665 24.0001C9.51185 24.0001 5.33317 19.8214 5.33317 14.6667C5.33317 9.51209 9.51185 5.33341 14.6665 5.33341C19.8212 5.33341 23.9998 9.51209 23.9998 14.6667C23.9998 17.1815 23.0052 19.464 21.388 21.1423C21.3424 21.1774 21.2987 21.2157 21.257 21.2574C21.2153 21.2991 21.177 21.3428 21.142 21.3883Z" fill="black"/>
</svg>
